<?xml version="1.0" encoding="utf-8" standalone="no"?>
<!DOCTYPE svg PUBLIC "-//W3C//DTD SVG 1.1//EN"
  "http://www.w3.org/Graphics/SVG/1.1/DTD/svg11.dtd">
<svg xmlns:xlink="http://www.w3.org/1999/xlink" width="349.2pt" height="347.04pt" viewBox="0 0 349.2 347.04" xmlns="http://www.w3.org/2000/svg" version="1.1">
 <metadata>
  <rdf:RDF xmlns:dc="http://purl.org/dc/elements/1.1/" xmlns:cc="http://creativecommons.org/ns#" xmlns:rdf="http://www.w3.org/1999/02/22-rdf-syntax-ns#">
   <cc:Work>
    <dc:type rdf:resource="http://purl.org/dc/dcmitype/StillImage"/>
    <dc:date>2023-10-27T22:08:57.334464</dc:date>
    <dc:format>image/svg+xml</dc:format>
    <dc:creator>
     <cc:Agent>
      <dc:title>Matplotlib v3.6.0, https://matplotlib.org/</dc:title>
     </cc:Agent>
    </dc:creator>
   </cc:Work>
  </rdf:RDF>
 </metadata>
 <defs>
  <style type="text/css">*{stroke-linejoin: round; stroke-linecap: butt}</style>
 </defs>
 <g id="figure_1">
  <g id="patch_1">
   <path d="M 0 347.04 
L 349.2 347.04 
L 349.2 -0 
L 0 -0 
z
" style="fill: #ffffff"/>
  </g>
  <g id="axes_1">
   <g id="patch_2">
    <path d="M 35.602744 135.2115 
C 21.476341 149.246764 17.28075 172.002852 23.94 198.468 
C 30.59925 224.933148 47.569643 252.946593 71.113646 276.3387 
C 94.65765 299.730807 122.853001 316.591713 149.49 323.208 
C 176.126999 329.824287 199.030854 325.655764 213.157256 311.6205 
C 227.283659 297.585236 231.47925 274.829148 224.82 248.364 
C 218.16075 221.898852 201.190357 193.885407 177.646354 170.4933 
C 154.10235 147.101193 125.906999 130.240287 99.27 123.624 
C 72.633001 117.007713 49.729146 121.176236 35.602744 135.2115 
z
" clip-path="url(#pccf33fcc32)" style="fill: #0000ff; opacity: 0.3"/>
   </g>
   <g id="patch_3">
    <path d="M 35.602744 135.2115 
C 21.476341 149.246764 17.28075 172.002852 23.94 198.468 
C 30.59925 224.933148 47.569643 252.946593 71.113646 276.3387 
C 94.65765 299.730807 122.853001 316.591713 149.49 323.208 
C 176.126999 329.824287 199.030854 325.655764 213.157256 311.6205 
C 227.283659 297.585236 231.47925 274.829148 224.82 248.364 
C 218.16075 221.898852 201.190357 193.885407 177.646354 170.4933 
C 154.10235 147.101193 125.906999 130.240287 99.27 123.624 
C 72.633001 117.007713 49.729146 121.176236 35.602744 135.2115 
L 35.602744 135.2115 
z
" clip-path="url(#pccf33fcc32)" style="fill: none; stroke: #000000; stroke-width: 0.72; stroke-linejoin: miter"/>
   </g>
   <g id="patch_4">
    <path d="M 79.126744 101.9475 
C 65.000341 115.982764 60.80475 138.738852 67.464 165.204 
C 74.12325 191.669148 91.093643 219.682593 114.637646 243.0747 
C 138.18165 266.466807 166.377001 283.327713 193.014 289.944 
C 219.650999 296.560287 242.554854 292.391764 256.681256 278.3565 
C 270.807659 264.321236 275.00325 241.565148 268.344 215.1 
C 261.68475 188.634852 244.714357 160.621407 221.170354 137.2293 
C 197.62635 113.837193 169.430999 96.976287 142.794 90.36 
C 116.157001 83.743713 93.253146 87.912236 79.126744 101.9475 
z
" clip-path="url(#pccf33fcc32)" style="fill: #008000; opacity: 0.3"/>
   </g>
   <g id="patch_5">
    <path d="M 79.126744 101.9475 
C 65.000341 115.982764 60.80475 138.738852 67.464 165.204 
C 74.12325 191.669148 91.093643 219.682593 114.637646 243.0747 
C 138.18165 266.466807 166.377001 283.327713 193.014 289.944 
C 219.650999 296.560287 242.554854 292.391764 256.681256 278.3565 
C 270.807659 264.321236 275.00325 241.565148 268.344 215.1 
C 261.68475 188.634852 244.714357 160.621407 221.170354 137.2293 
C 197.62635 113.837193 169.430999 96.976287 142.794 90.36 
C 116.157001 83.743713 93.253146 87.912236 79.126744 101.9475 
L 79.126744 101.9475 
z
" clip-path="url(#pccf33fcc32)" style="fill: none; stroke: #000000; stroke-width: 0.72; stroke-linejoin: miter"/>
   </g>
   <g id="patch_6">
    <path d="M 92.518744 278.3565 
C 106.645146 292.391764 129.549001 296.560287 156.186 289.944 
C 182.822999 283.327713 211.01835 266.466807 234.562354 243.0747 
C 258.106357 219.682593 275.07675 191.669148 281.736 165.204 
C 288.39525 138.738852 284.199659 115.982764 270.073256 101.9475 
C 255.946854 87.912236 233.042999 83.743713 206.406 90.36 
C 179.769001 96.976287 151.57365 113.837193 128.029646 137.2293 
C 104.485643 160.621407 87.51525 188.634852 80.856 215.1 
C 74.19675 241.565148 78.392341 264.321236 92.518744 278.3565 
z
" clip-path="url(#pccf33fcc32)" style="fill: #ff0000; opacity: 0.3"/>
   </g>
   <g id="patch_7">
    <path d="M 92.518744 278.3565 
C 106.645146 292.391764 129.549001 296.560287 156.186 289.944 
C 182.822999 283.327713 211.01835 266.466807 234.562354 243.0747 
C 258.106357 219.682593 275.07675 191.669148 281.736 165.204 
C 288.39525 138.738852 284.199659 115.982764 270.073256 101.9475 
C 255.946854 87.912236 233.042999 83.743713 206.406 90.36 
C 179.769001 96.976287 151.57365 113.837193 128.029646 137.2293 
C 104.485643 160.621407 87.51525 188.634852 80.856 215.1 
C 74.19675 241.565148 78.392341 264.321236 92.518744 278.3565 
L 92.518744 278.3565 
z
" clip-path="url(#pccf33fcc32)" style="fill: none; stroke: #000000; stroke-width: 0.72; stroke-linejoin: miter"/>
   </g>
   <g id="patch_8">
    <path d="M 136.042744 311.6205 
C 150.169146 325.655764 173.073001 329.824287 199.71 323.208 
C 226.346999 316.591713 254.54235 299.730807 278.086354 276.3387 
C 301.630357 252.946593 318.60075 224.933148 325.26 198.468 
C 331.91925 172.002852 327.723659 149.246764 313.597256 135.2115 
C 299.470854 121.176236 276.566999 117.007713 249.93 123.624 
C 223.293001 130.240287 195.09765 147.101193 171.553646 170.4933 
C 148.009643 193.885407 131.03925 221.898852 124.38 248.364 
C 117.72075 274.829148 121.916341 297.585236 136.042744 311.6205 
z
" clip-path="url(#pccf33fcc32)" style="fill: #00bfbf; opacity: 0.3"/>
   </g>
   <g id="patch_9">
    <path d="M 136.042744 311.6205 
C 150.169146 325.655764 173.073001 329.824287 199.71 323.208 
C 226.346999 316.591713 254.54235 299.730807 278.086354 276.3387 
C 301.630357 252.946593 318.60075 224.933148 325.26 198.468 
C 331.91925 172.002852 327.723659 149.246764 313.597256 135.2115 
C 299.470854 121.176236 276.566999 117.007713 249.93 123.624 
C 223.293001 130.240287 195.09765 147.101193 171.553646 170.4933 
C 148.009643 193.885407 131.03925 221.898852 124.38 248.364 
C 117.72075 274.829148 121.916341 297.585236 136.042744 311.6205 
L 136.042744 311.6205 
z
" clip-path="url(#pccf33fcc32)" style="fill: none; stroke: #000000; stroke-width: 0.72; stroke-linejoin: miter"/>
   </g>
   <g id="text_1">
    <!-- 9 -->
    <g transform="translate(43.5585 120.28245) scale(0.12 -0.12)">
     <defs>
      <path id="DejaVuSans-39" d="M 703 97 
L 703 672 
Q 941 559 1184 500 
Q 1428 441 1663 441 
Q 2288 441 2617 861 
Q 2947 1281 2994 2138 
Q 2813 1869 2534 1725 
Q 2256 1581 1919 1581 
Q 1219 1581 811 2004 
Q 403 2428 403 3163 
Q 403 3881 828 4315 
Q 1253 4750 1959 4750 
Q 2769 4750 3195 4129 
Q 3622 3509 3622 2328 
Q 3622 1225 3098 567 
Q 2575 -91 1691 -91 
Q 1453 -91 1209 -44 
Q 966 3 703 97 
z
M 1959 2075 
Q 2384 2075 2632 2365 
Q 2881 2656 2881 3163 
Q 2881 3666 2632 3958 
Q 2384 4250 1959 4250 
Q 1534 4250 1286 3958 
Q 1038 3666 1038 3163 
Q 1038 2656 1286 2365 
Q 1534 2075 1959 2075 
z
" transform="scale(0.015625)"/>
     </defs>
     <use xlink:href="#DejaVuSans-39"/>
    </g>
   </g>
   <g id="text_2">
    <!-- 11 -->
    <g transform="translate(106.701 80.36565) scale(0.12 -0.12)">
     <defs>
      <path id="DejaVuSans-31" d="M 794 531 
L 1825 531 
L 1825 4091 
L 703 3866 
L 703 4441 
L 1819 4666 
L 2450 4666 
L 2450 531 
L 3481 531 
L 3481 0 
L 794 0 
L 794 531 
z
" transform="scale(0.015625)"/>
     </defs>
     <use xlink:href="#DejaVuSans-31"/>
     <use xlink:href="#DejaVuSans-31" x="63.623047"/>
    </g>
   </g>
   <g id="text_3">
    <!-- 10 -->
    <g transform="translate(227.229 80.36565) scale(0.12 -0.12)">
     <defs>
      <path id="DejaVuSans-30" d="M 2034 4250 
Q 1547 4250 1301 3770 
Q 1056 3291 1056 2328 
Q 1056 1369 1301 889 
Q 1547 409 2034 409 
Q 2525 409 2770 889 
Q 3016 1369 3016 2328 
Q 3016 3291 2770 3770 
Q 2525 4250 2034 4250 
z
M 2034 4750 
Q 2819 4750 3233 4129 
Q 3647 3509 3647 2328 
Q 3647 1150 3233 529 
Q 2819 -91 2034 -91 
Q 1250 -91 836 529 
Q 422 1150 422 2328 
Q 422 3509 836 4129 
Q 1250 4750 2034 4750 
z
" transform="scale(0.015625)"/>
     </defs>
     <use xlink:href="#DejaVuSans-31"/>
     <use xlink:href="#DejaVuSans-30" x="63.623047"/>
    </g>
   </g>
   <g id="text_4">
    <!-- 10 -->
    <g transform="translate(294.189 120.28245) scale(0.12 -0.12)">
     <use xlink:href="#DejaVuSans-31"/>
     <use xlink:href="#DejaVuSans-30" x="63.623047"/>
    </g>
   </g>
   <g id="text_5">
    <!-- 2 -->
    <g transform="translate(50.2545 206.76885) scale(0.12 -0.12)">
     <defs>
      <path id="DejaVuSans-32" d="M 1228 531 
L 3431 531 
L 3431 0 
L 469 0 
L 469 531 
Q 828 903 1448 1529 
Q 2069 2156 2228 2338 
Q 2531 2678 2651 2914 
Q 2772 3150 2772 3378 
Q 2772 3750 2511 3984 
Q 2250 4219 1831 4219 
Q 1534 4219 1204 4116 
Q 875 4013 500 3803 
L 500 4441 
Q 881 4594 1212 4672 
Q 1544 4750 1819 4750 
Q 2544 4750 2975 4387 
Q 3406 4025 3406 3419 
Q 3406 3131 3298 2873 
Q 3191 2616 2906 2266 
Q 2828 2175 2409 1742 
Q 1991 1309 1228 531 
z
" transform="scale(0.015625)"/>
     </defs>
     <use xlink:href="#DejaVuSans-32"/>
    </g>
   </g>
   <g id="text_6">
    <!-- 4 -->
    <g transform="translate(117.2145 110.30325) scale(0.12 -0.12)">
     <defs>
      <path id="DejaVuSans-34" d="M 2419 4116 
L 825 1625 
L 2419 1625 
L 2419 4116 
z
M 2253 4666 
L 3047 4666 
L 3047 1625 
L 3713 1625 
L 3713 1100 
L 3047 1100 
L 3047 0 
L 2419 0 
L 2419 1100 
L 313 1100 
L 313 1709 
L 2253 4666 
z
" transform="scale(0.015625)"/>
     </defs>
     <use xlink:href="#DejaVuSans-34"/>
    </g>
   </g>
   <g id="text_7">
    <!-- 3 -->
    <g transform="translate(224.3505 110.30325) scale(0.12 -0.12)">
     <defs>
      <path id="DejaVuSans-33" d="M 2597 2516 
Q 3050 2419 3304 2112 
Q 3559 1806 3559 1356 
Q 3559 666 3084 287 
Q 2609 -91 1734 -91 
Q 1441 -91 1130 -33 
Q 819 25 488 141 
L 488 750 
Q 750 597 1062 519 
Q 1375 441 1716 441 
Q 2309 441 2620 675 
Q 2931 909 2931 1356 
Q 2931 1769 2642 2001 
Q 2353 2234 1838 2234 
L 1294 2234 
L 1294 2753 
L 1863 2753 
Q 2328 2753 2575 2939 
Q 2822 3125 2822 3475 
Q 2822 3834 2567 4026 
Q 2313 4219 1838 4219 
Q 1578 4219 1281 4162 
Q 984 4106 628 3988 
L 628 4550 
Q 988 4650 1302 4700 
Q 1616 4750 1894 4750 
Q 2613 4750 3031 4423 
Q 3450 4097 3450 3541 
Q 3450 3153 3228 2886 
Q 3006 2619 2597 2516 
z
" transform="scale(0.015625)"/>
     </defs>
     <use xlink:href="#DejaVuSans-33"/>
    </g>
   </g>
   <g id="text_8">
    <!-- 4 -->
    <g transform="translate(291.3105 206.76885) scale(0.12 -0.12)">
     <use xlink:href="#DejaVuSans-34"/>
    </g>
   </g>
   <g id="text_9">
    <!-- 1 -->
    <g transform="translate(90.4305 146.89365) scale(0.12 -0.12)">
     <use xlink:href="#DejaVuSans-31"/>
    </g>
   </g>
   <g id="text_10">
    <!-- 1 -->
    <g transform="translate(97.1265 256.66485) scale(0.12 -0.12)">
     <use xlink:href="#DejaVuSans-31"/>
    </g>
   </g>
   <g id="text_11">
    <!-- 0 -->
    <g transform="translate(170.7825 306.56085) scale(0.12 -0.12)">
     <use xlink:href="#DejaVuSans-30"/>
    </g>
   </g>
   <g id="text_12">
    <!-- 0 -->
    <g transform="translate(170.7825 143.56725) scale(0.12 -0.12)">
     <use xlink:href="#DejaVuSans-30"/>
    </g>
   </g>
   <g id="text_13">
    <!-- 0 -->
    <g transform="translate(244.4385 256.66485) scale(0.12 -0.12)">
     <use xlink:href="#DejaVuSans-30"/>
    </g>
   </g>
   <g id="text_14">
    <!-- 1 -->
    <g transform="translate(251.1345 146.89365) scale(0.12 -0.12)">
     <use xlink:href="#DejaVuSans-31"/>
    </g>
   </g>
   <g id="text_15">
    <!-- 1 -->
    <g transform="translate(127.2585 173.50485) scale(0.12 -0.12)">
     <use xlink:href="#DejaVuSans-31"/>
    </g>
   </g>
   <g id="text_16">
    <!-- 1 -->
    <g transform="translate(204.2625 286.60245) scale(0.12 -0.12)">
     <use xlink:href="#DejaVuSans-31"/>
    </g>
   </g>
   <g id="text_17">
    <!-- 0 -->
    <g transform="translate(137.3025 286.60245) scale(0.12 -0.12)">
     <use xlink:href="#DejaVuSans-30"/>
    </g>
   </g>
   <g id="text_18">
    <!-- 1 -->
    <g transform="translate(214.3065 173.50485) scale(0.12 -0.12)">
     <use xlink:href="#DejaVuSans-31"/>
    </g>
   </g>
   <g id="text_19">
    <!-- 3 -->
    <g transform="translate(170.7825 226.72725) scale(0.12 -0.12)">
     <use xlink:href="#DejaVuSans-33"/>
    </g>
   </g>
   <g id="legend_1">
    <g id="patch_10">
     <path d="M 91.724625 32.436338 
L 111.524625 32.436338 
L 111.524625 23.196338 
L 91.724625 23.196338 
z
" style="fill: #0000ff; opacity: 0.3; stroke: #0000ff; stroke-linejoin: miter"/>
    </g>
    <g id="text_20">
     <!-- Set1 -->
     <g transform="translate(118.124625 32.436338) scale(0.132 -0.132)">
      <defs>
       <path id="DejaVuSans-53" d="M 3425 4513 
L 3425 3897 
Q 3066 4069 2747 4153 
Q 2428 4238 2131 4238 
Q 1616 4238 1336 4038 
Q 1056 3838 1056 3469 
Q 1056 3159 1242 3001 
Q 1428 2844 1947 2747 
L 2328 2669 
Q 3034 2534 3370 2195 
Q 3706 1856 3706 1288 
Q 3706 609 3251 259 
Q 2797 -91 1919 -91 
Q 1588 -91 1214 -16 
Q 841 59 441 206 
L 441 856 
Q 825 641 1194 531 
Q 1563 422 1919 422 
Q 2459 422 2753 634 
Q 3047 847 3047 1241 
Q 3047 1584 2836 1778 
Q 2625 1972 2144 2069 
L 1759 2144 
Q 1053 2284 737 2584 
Q 422 2884 422 3419 
Q 422 4038 858 4394 
Q 1294 4750 2059 4750 
Q 2388 4750 2728 4690 
Q 3069 4631 3425 4513 
z
" transform="scale(0.015625)"/>
       <path id="DejaVuSans-65" d="M 3597 1894 
L 3597 1613 
L 953 1613 
Q 991 1019 1311 708 
Q 1631 397 2203 397 
Q 2534 397 2845 478 
Q 3156 559 3463 722 
L 3463 178 
Q 3153 47 2828 -22 
Q 2503 -91 2169 -91 
Q 1331 -91 842 396 
Q 353 884 353 1716 
Q 353 2575 817 3079 
Q 1281 3584 2069 3584 
Q 2775 3584 3186 3129 
Q 3597 2675 3597 1894 
z
M 3022 2063 
Q 3016 2534 2758 2815 
Q 2500 3097 2075 3097 
Q 1594 3097 1305 2825 
Q 1016 2553 972 2059 
L 3022 2063 
z
" transform="scale(0.015625)"/>
       <path id="DejaVuSans-74" d="M 1172 4494 
L 1172 3500 
L 2356 3500 
L 2356 3053 
L 1172 3053 
L 1172 1153 
Q 1172 725 1289 603 
Q 1406 481 1766 481 
L 2356 481 
L 2356 0 
L 1766 0 
Q 1100 0 847 248 
Q 594 497 594 1153 
L 594 3053 
L 172 3053 
L 172 3500 
L 594 3500 
L 594 4494 
L 1172 4494 
z
" transform="scale(0.015625)"/>
      </defs>
      <use xlink:href="#DejaVuSans-53"/>
      <use xlink:href="#DejaVuSans-65" x="63.476562"/>
      <use xlink:href="#DejaVuSans-74" x="125"/>
      <use xlink:href="#DejaVuSans-31" x="164.208984"/>
     </g>
    </g>
    <g id="patch_11">
     <path d="M 91.724625 51.811463 
L 111.524625 51.811463 
L 111.524625 42.571463 
L 91.724625 42.571463 
z
" style="fill: #008000; opacity: 0.3; stroke: #008000; stroke-linejoin: miter"/>
    </g>
    <g id="text_21">
     <!-- Set2 -->
     <g transform="translate(118.124625 51.811463) scale(0.132 -0.132)">
      <use xlink:href="#DejaVuSans-53"/>
      <use xlink:href="#DejaVuSans-65" x="63.476562"/>
      <use xlink:href="#DejaVuSans-74" x="125"/>
      <use xlink:href="#DejaVuSans-32" x="164.208984"/>
     </g>
    </g>
    <g id="patch_12">
     <path d="M 201 32.436338 
L 220.8 32.436338 
L 220.8 23.196338 
L 201 23.196338 
z
" style="fill: #ff0000; opacity: 0.3; stroke: #ff0000; stroke-linejoin: miter"/>
    </g>
    <g id="text_22">
     <!-- Set3 -->
     <g transform="translate(227.4 32.436338) scale(0.132 -0.132)">
      <use xlink:href="#DejaVuSans-53"/>
      <use xlink:href="#DejaVuSans-65" x="63.476562"/>
      <use xlink:href="#DejaVuSans-74" x="125"/>
      <use xlink:href="#DejaVuSans-33" x="164.208984"/>
     </g>
    </g>
    <g id="patch_13">
     <path d="M 201 51.811463 
L 220.8 51.811463 
L 220.8 42.571463 
L 201 42.571463 
z
" style="fill: #00bfbf; opacity: 0.3; stroke: #00bfbf; stroke-linejoin: miter"/>
    </g>
    <g id="text_23">
     <!-- Set4 -->
     <g transform="translate(227.4 51.811463) scale(0.132 -0.132)">
      <use xlink:href="#DejaVuSans-53"/>
      <use xlink:href="#DejaVuSans-65" x="63.476562"/>
      <use xlink:href="#DejaVuSans-74" x="125"/>
      <use xlink:href="#DejaVuSans-34" x="164.208984"/>
     </g>
    </g>
   </g>
  </g>
 </g>
 <defs>
  <clipPath id="pccf33fcc32">
   <rect x="7.2" y="7.2" width="334.8" height="332.64"/>
  </clipPath>
 </defs>
</svg>
